<?xml version="1.0" standalone="no"?>
<!DOCTYPE svg PUBLIC "-//W3C//DTD SVG 20010904//EN"
 "http://www.w3.org/TR/2001/REC-SVG-20010904/DTD/svg10.dtd">
<svg version="1.0" xmlns="http://www.w3.org/2000/svg"
 width="660.000000pt" height="660.000000pt" viewBox="0 0 660.000000 660.000000"
 preserveAspectRatio="xMidYMid meet">
<metadata>
Created by potrace 1.11, written by Peter Selinger 2001-2013
</metadata>
<g transform="translate(0.000000,660.000000) scale(0.100000,-0.100000)"
fill="#000000" stroke="none">
<path d="M60 6193 c-8 -3 -24 -15 -35 -27 -20 -20 -20 -34 -20 -1268 0 -1234
0 -1247 20 -1265 11 -11 28 -22 38 -26 10 -4 360 -7 778 -7 l759 0 1 -23 c1
-12 1 -26 0 -30 -1 -8 -2 -38 -1 -67 0 -8 0 -51 0 -95 0 -44 0 -88 0 -97 0
-109 0 -129 0 -215 l-1 -72 -687 0 c-378 0 -724 0 -769 -1 -77 0 -83 -2 -112
-31 l-31 -31 0 -429 c0 -369 2 -434 15 -460 25 -47 51 -53 201 -48 19 0 38 -1
40 -4 3 -3 19 -1 35 3 16 5 29 5 29 0 0 -5 12 -5 28 -1 15 4 38 5 52 1 14 -4
37 -3 52 1 16 4 28 4 28 -1 0 -5 12 -5 28 -1 15 4 38 5 52 1 14 -4 36 -4 50
-1 14 4 45 4 70 1 25 -3 57 -3 71 1 15 4 32 4 38 0 7 -4 28 -5 47 -2 20 3 112
4 205 1 94 -3 180 -2 193 1 13 4 29 3 35 -1 7 -3 28 -4 47 -1 20 3 112 4 205
1 94 -3 180 -2 193 1 13 4 29 3 36 -1 6 -4 28 -4 48 -1 20 3 57 4 82 1 25 -3
56 -3 70 1 14 3 36 3 50 -1 14 -4 37 -3 53 1 15 4 27 4 27 -1 0 -5 12 -5 28
-1 15 4 38 5 52 1 14 -4 37 -3 53 1 15 4 27 4 27 -1 0 -5 12 -5 28 -1 15 4 38
5 52 1 14 -4 37 -3 53 1 15 4 27 4 27 -1 0 -5 6 -7 13 -4 7 2 41 6 76 7 57 2
66 6 87 32 21 27 24 40 24 125 0 52 0 480 0 950 -1 470 -1 864 -1 875 1 527 0
537 -14 565 -8 16 -19 31 -23 34 -17 10 -79 17 -147 16 -82 -1 -91 -1 -215 -1
-52 1 -113 1 -135 0 -22 0 -44 0 -50 1 -10 2 -129 1 -143 -1 -4 -1 -11 0 -17
1 -5 1 -44 1 -85 0 -41 -1 -84 -1 -95 -1 -87 1 -217 1 -250 0 -22 0 -44 0 -50
1 -10 2 -129 1 -143 -1 -4 -1 -11 0 -17 1 -5 1 -44 1 -85 0 -111 -2 -112 -2
-121 7 -10 10 -11 26 -9 127 1 37 -1 71 -4 74 -3 3 -1 10 4 17 6 7 6 23 1 43
-5 17 -7 32 -5 34 2 3 4 27 4 54 0 55 1 87 4 124 1 14 -1 36 -5 50 -3 14 -2
36 2 49 8 19 15 22 40 19 16 -3 32 -1 35 4 3 5 9 6 14 3 8 -5 278 -9 305 -4 6
1 14 1 18 0 11 -2 449 -2 462 0 6 1 14 1 18 0 11 -2 449 -2 462 0 6 1 14 1 19
0 5 -1 39 -2 77 -2 83 0 125 19 142 65 9 24 10 847 1 872 -4 10 -19 29 -33 41
l-26 23 -1230 -1 c-676 0 -1237 -3 -1245 -6z m823 -193 c56 0 109 1 117 1 8 0
62 0 120 0 58 0 112 0 120 0 8 0 62 0 120 0 58 0 112 0 120 0 8 0 62 0 120 0
58 0 114 0 125 0 11 0 167 0 346 0 l325 -1 2 -27 c4 -95 3 -223 -2 -232 -4 -5
-2 -12 4 -16 6 -4 7 -11 4 -17 -8 -13 -7 -165 1 -178 3 -6 3 -10 -2 -10 -9 0
-8 -82 0 -105 5 -12 -17 -14 -136 -14 -78 0 -182 0 -232 0 -49 0 -157 0 -240
0 -82 0 -190 0 -240 0 -49 0 -157 0 -240 0 -82 0 -190 0 -240 0 -49 0 -157 0
-240 0 -82 0 -190 0 -240 0 -49 0 -158 0 -242 0 l-151 1 -4 32 c-1 17 -1 47 2
66 3 19 3 49 -1 67 -4 18 -5 34 -2 37 3 2 4 58 3 123 -1 136 -1 124 0 208 l1
66 276 -1 c151 -1 278 1 280 4 3 3 10 3 14 0 5 -3 55 -5 112 -4z m-173 -802
l91 -1 -1 -36 c0 -20 -1 -65 -1 -101 0 -36 -1 -91 -2 -123 -1 -31 1 -57 4 -57
4 0 4 -15 0 -32 -4 -18 -5 -46 -1 -62 3 -15 4 -63 2 -106 -3 -76 -4 -78 -30
-81 -15 -2 -45 -2 -67 1 -22 3 -59 2 -82 -1 -24 -3 -45 -3 -48 -1 -3 3 -40 5
-83 3 -42 -1 -86 -2 -97 -2 -11 0 -60 1 -108 2 l-88 1 0 137 c0 75 0 143 0
151 -1 22 0 121 1 150 1 14 2 54 3 90 l2 65 194 2 c106 1 196 4 198 7 3 3 9 3
14 0 4 -2 49 -5 99 -6z m-307 -798 c56 0 109 1 117 1 8 1 31 1 50 0 19 -1 43
-1 53 -1 9 0 24 0 32 0 8 0 21 0 28 0 6 1 113 1 237 1 124 0 232 0 240 1 8 0
31 0 50 -1 19 -1 43 -1 53 -1 9 0 24 0 32 0 8 0 21 0 28 1 6 0 59 0 117 0 58
0 112 0 120 0 8 0 62 0 120 0 58 0 112 0 120 0 8 1 31 1 50 0 19 -1 43 -1 53
-1 9 0 24 0 32 0 8 0 21 0 28 1 11 0 189 0 242 0 81 -1 126 -1 132 0 52 9 76
-21 63 -78 -5 -18 -4 -35 1 -38 4 -3 6 -12 3 -19 -8 -21 -10 -176 -2 -176 4 0
3 -13 -2 -29 -4 -16 -6 -32 -3 -34 3 -4 4 -73 2 -209 0 -14 -14 -16 -97 -17
-53 -1 -104 -2 -112 -2 -8 0 -87 0 -175 0 -88 0 -167 1 -175 0 -8 0 -73 0
-145 0 -71 1 -137 0 -145 0 -8 0 -87 0 -175 0 -88 0 -167 1 -175 0 -8 0 -73 0
-145 0 -71 1 -137 0 -145 0 -8 0 -87 0 -175 0 -88 0 -168 1 -177 1 -10 -1 -76
0 -147 1 -71 1 -134 -2 -140 -5 -6 -4 -11 -3 -11 1 0 5 -12 9 -27 8 -24 0 -28
5 -34 38 -3 20 -2 37 2 37 4 0 4 13 -1 29 -4 16 -6 31 -4 34 4 3 4 28 3 122 0
11 0 91 0 177 l0 158 30 -4 c16 -2 35 0 42 5 7 4 17 5 21 3 4 -3 54 -5 111 -4z
m1994 -850 c1 -27 4 -54 8 -60 3 -5 2 -10 -3 -10 -5 0 -6 -19 -2 -42 3 -24 3
-58 -1 -76 -4 -18 -3 -35 2 -37 4 -3 6 -12 3 -19 -8 -20 -10 -176 -3 -176 4 0
3 -17 -1 -38 -3 -20 -3 -49 1 -64 l7 -27 -303 0 -303 0 0 98 c-1 54 -2 102 -3
107 -1 5 -1 14 1 19 1 8 1 116 -1 245 0 8 1 41 1 73 l1 57 298 0 297 0 1 -50z
m-1914 -751 c56 0 107 1 112 2 6 1 14 1 19 0 12 -3 207 -3 221 0 6 1 14 1 19
0 12 -3 207 -3 221 0 6 1 14 1 19 0 11 -2 287 -2 301 0 6 1 14 1 19 0 12 -3
207 -3 221 0 6 1 14 1 19 0 12 -3 207 -3 221 0 6 1 14 1 19 0 12 -3 207 -3
221 0 6 1 15 0 20 -1 6 -1 67 -2 137 -1 l127 1 -1 -38 c0 -20 1 -68 2 -105 1
-38 0 -71 -3 -74 -3 -2 -1 -18 3 -34 5 -16 5 -29 1 -29 -4 0 -5 -19 -1 -42 3
-24 3 -58 -1 -76 -4 -18 -3 -35 2 -38 5 -3 7 -10 3 -15 -3 -6 -6 -41 -5 -79 1
-65 0 -68 -24 -72 -14 -3 -25 -2 -25 1 0 3 -24 5 -52 4 -29 -1 -66 -2 -83 -3
-30 -1 -157 -2 -185 -1 -26 0 -1424 0 -1435 0 -5 -1 -23 0 -40 1 -24 1 -146 2
-220 1 -48 -1 -107 0 -120 1 -12 1 -14 31 -14 185 0 101 -3 188 -6 193 -3 6
-3 10 2 10 8 0 7 94 -1 116 -3 7 -2 15 2 18 3 4 6 21 6 39 l1 32 73 1 c40 1
76 4 79 7 3 4 10 4 14 1 5 -3 55 -5 112 -5z"/>
<path d="M2887 4599 c-42 -11 -68 -30 -78 -57 -9 -23 -10 -69 -8 -252 0 -15 0
-365 0 -405 -1 -38 0 -590 0 -600 0 -5 0 -39 0 -75 0 -36 0 -72 0 -80 0 -8 0
-107 0 -220 0 -113 0 -212 0 -220 0 -8 0 -76 -1 -150 -1 -205 -1 -303 -1 -320
0 -8 1 -43 1 -77 0 -78 12 -108 47 -127 25 -13 91 -22 118 -16 6 1 14 1 20 0
5 -1 46 -1 90 0 77 1 94 1 133 0 57 -2 391 -2 412 0 14 1 31 1 38 1 21 -2 45
-2 111 -1 35 0 66 -1 68 -4 3 -2 17 -1 31 3 15 4 38 5 52 1 14 -4 37 -3 53 1
15 4 27 4 27 -1 0 -5 12 -5 28 -1 15 4 38 5 52 1 14 -4 37 -3 53 1 15 4 27 4
27 -1 0 -5 12 -5 28 -1 15 3 45 4 67 1 22 -3 59 -3 82 1 51 7 65 0 60 -31 -2
-14 -1 -39 4 -57 4 -18 3 -35 -1 -38 -4 -3 -5 -20 -1 -38 5 -18 6 -41 4 -52
-2 -11 -3 -63 -3 -115 2 -125 2 -115 -1 -196 l-1 -71 -57 -2 c-31 -2 -63 -3
-71 -2 -8 1 -53 1 -100 1 -47 -1 -92 -1 -100 -1 -8 1 -71 0 -140 0 -69 0 -132
0 -140 0 -8 1 -53 1 -100 1 -47 -1 -92 -1 -100 -1 -8 1 -71 0 -140 0 -69 0
-132 0 -140 0 -8 1 -53 1 -100 1 -47 -1 -92 -1 -100 -1 -194 4 -241 1 -261
-13 -25 -17 -60 -67 -54 -76 5 -7 5 -37 5 -235 0 -137 0 -157 -3 -352 -1 -79
0 -143 3 -143 3 0 4 -26 2 -57 -2 -49 1 -63 22 -88 l24 -30 1224 -3 c672 -1
1237 0 1255 3 20 4 40 17 53 35 l21 29 0 1653 c0 910 0 1658 -1 1663 -2 6 -2
15 -1 20 1 6 2 168 2 362 0 304 -2 356 -16 383 -19 37 -54 52 -115 51 -59 -2
-77 -2 -190 -2 -52 1 -113 1 -135 0 -22 0 -44 0 -50 1 -5 1 -44 1 -85 0 -41
-1 -84 -1 -95 -1 -25 0 -214 0 -235 0 -8 0 -44 0 -80 0 -36 0 -72 1 -80 0 -8
0 -44 0 -80 0 -36 1 -72 1 -80 0 -8 0 -44 0 -80 0 -36 1 -72 1 -80 0 -8 0 -60
0 -115 0 -55 0 -111 0 -125 0 -14 0 -68 0 -120 0 -52 1 -113 1 -135 0 -22 0
-44 0 -50 1 -5 1 -44 1 -85 0 -41 -1 -84 -1 -95 -1 -87 1 -217 1 -250 0 -22 0
-42 0 -45 1 -15 5 -73 4 -93 -1z m396 -199 c56 0 109 1 117 1 8 1 31 1 50 0
19 -1 42 -1 50 0 8 1 112 1 230 0 118 0 222 0 230 0 8 0 80 0 160 0 80 0 152
0 160 0 16 0 535 0 560 0 8 0 62 0 120 0 58 0 114 0 125 -1 11 0 41 0 67 0
l47 0 0 -299 0 -299 -112 -1 c-61 -1 -121 -1 -132 -1 -11 0 -58 -1 -105 -1
-47 0 -92 0 -100 0 -8 1 -44 1 -80 0 -36 0 -69 0 -75 0 -115 5 -195 4 -195 -2
0 -5 -4 -5 -10 -2 -8 5 -36 6 -155 5 -31 -1 -228 -1 -245 -1 -8 1 -53 0 -100
0 -47 0 -92 0 -100 0 -8 1 -44 1 -80 0 -36 0 -69 0 -75 0 -115 5 -195 4 -195
-2 0 -5 -4 -5 -10 -2 -5 3 -38 6 -72 5 -95 0 -94 0 -229 0 l-126 1 -2 51 c-1
28 -4 55 -7 59 -3 5 -1 9 3 9 5 0 8 12 7 28 -5 57 -6 80 -4 174 1 54 -1 102
-5 108 -3 5 -2 10 2 10 5 0 8 15 6 33 -6 55 -5 106 2 117 4 7 36 10 76 9 38
-1 72 1 76 4 3 4 10 4 14 1 5 -3 55 -5 112 -4z m316 -863 c-1 -34 0 -66 1 -72
1 -5 2 -14 1 -19 -1 -6 -2 -48 -1 -95 0 -47 0 -95 0 -106 0 -11 0 -49 1 -85 0
-73 0 -76 -2 -124 l-1 -35 -299 1 -300 0 2 88 c1 48 -2 93 -5 99 -4 6 -4 11 1
11 8 0 7 125 -2 148 -2 6 -1 12 3 12 4 0 6 54 5 120 l-3 120 300 0 300 -1 -1
-62z m802 35 c1 -15 0 -31 -1 -37 -1 -5 -1 -53 0 -105 2 -92 1 -143 -4 -185
-1 -11 1 -35 5 -53 4 -17 3 -34 -1 -37 -4 -3 -4 -22 0 -42 5 -20 6 -42 2 -47
-3 -6 -5 -23 -4 -37 l2 -27 -299 -1 -299 0 -1 299 0 299 299 0 300 0 1 -27z
m798 -272 l0 -298 -298 -1 -299 0 -1 290 c-1 160 1 295 5 300 3 6 122 9 299 9
l294 -1 0 -299z m-1196 -501 c56 0 107 1 112 2 6 1 14 1 19 0 12 -3 207 -3
221 0 6 1 14 1 18 0 13 -2 210 -3 222 0 6 1 14 1 19 0 12 -3 207 -3 221 0 6 1
14 1 19 0 12 -3 207 -3 221 0 6 1 15 0 20 -1 6 -1 31 -2 57 -1 l47 1 0 -299 0
-299 -377 -2 c-207 0 -384 -1 -392 -1 -8 0 -44 0 -80 0 -36 0 -69 -1 -75 -1
-5 0 -39 1 -75 1 -36 0 -74 0 -85 0 -11 0 -49 0 -85 0 -36 0 -72 0 -80 0 -8 0
-223 1 -477 1 -436 1 -463 2 -473 19 -5 10 -7 21 -3 24 8 8 7 133 -2 146 -3 6
-2 11 2 11 9 0 8 73 -1 96 -2 6 -2 14 1 17 3 3 5 69 4 147 l-1 140 436 0 c240
-1 439 1 442 4 2 3 9 3 13 0 5 -3 55 -5 112 -5z m898 -798 c96 0 183 0 194 -1
11 0 39 0 62 0 l42 1 -2 -298 -2 -298 -65 -2 c-36 -1 -74 -2 -85 -3 -27 -1
-276 -1 -295 -1 -8 1 -45 2 -83 2 l-67 1 1 298 0 298 51 0 c28 1 53 3 55 6 3
3 9 3 13 1 4 -2 85 -4 181 -4z m-1538 -802 c56 0 107 1 112 2 6 1 14 1 19 0
12 -3 207 -3 221 0 6 1 14 1 18 0 11 -2 449 -2 462 0 6 1 14 0 20 -1 11 -2
458 -1 465 1 3 1 9 1 14 0 5 -1 121 -2 257 -1 l247 0 2 -152 c0 -84 1 -159 1
-165 0 -7 -1 -74 -1 -148 l-2 -135 -41 -1 c-23 -1 -46 0 -52 1 -5 1 -53 1
-105 0 -114 -1 -110 -1 -235 -1 -55 0 -109 0 -120 0 -11 0 -49 0 -85 0 -36 0
-72 1 -80 0 -8 0 -60 0 -115 0 -55 0 -109 0 -120 0 -11 0 -65 0 -120 0 -55 0
-109 0 -120 0 -11 0 -65 0 -120 0 -55 0 -109 0 -120 0 -17 0 -78 0 -237 1 -10
0 -29 -1 -43 -1 -45 0 -59 0 -160 0 -55 1 -118 1 -140 0 -22 0 -44 0 -50 1 -5
1 -37 3 -70 4 l-60 1 -6 38 c-3 21 -2 40 2 42 4 3 4 18 -1 34 -4 16 -6 32 -3
35 6 5 7 118 2 142 -1 5 -1 14 0 19 1 6 2 72 2 148 l-1 138 116 -2 c63 -1 118
1 121 5 3 3 10 3 14 0 5 -3 55 -5 112 -5z"/>
<path d="M5693 2198 c-24 -4 -51 -15 -62 -25 -24 -23 -40 -81 -30 -115 4 -15
5 -29 2 -32 -9 -8 -8 -176 0 -176 5 0 5 -5 2 -10 -6 -10 -7 -47 -6 -180 1 -78
1 -88 1 -102 1 -19 1 -218 0 -250 0 -43 17 -76 51 -94 26 -13 60 -16 167 -16
74 0 136 3 138 5 3 2 18 2 35 -2 16 -3 149 -4 295 -1 l266 5 24 30 24 30 0
435 c0 397 -2 437 -18 456 -29 37 -61 46 -141 44 -42 -1 -89 -1 -106 0 -16 1
-36 2 -42 2 -7 -1 -51 -1 -98 -1 -47 0 -92 0 -100 0 -8 0 -35 0 -60 0 -25 0
-52 0 -60 0 -8 0 -52 0 -97 0 -46 0 -96 1 -113 2 -16 1 -49 -1 -72 -5z m255
-199 c15 4 38 5 52 1 14 -4 37 -3 53 1 15 4 27 4 27 -1 0 -5 12 -5 28 -1 15 4
38 5 52 1 14 -4 37 -3 53 1 15 4 27 4 27 -1 0 -5 12 -5 28 -2 15 4 50 5 77 2
46 -5 50 -7 50 -32 1 -15 3 -30 7 -33 3 -3 2 -23 -2 -45 -4 -22 -4 -40 0 -40
4 0 5 -15 1 -32 -4 -18 -4 -47 0 -65 3 -18 4 -35 1 -37 -7 -8 -8 -106 -1 -106
4 0 4 -15 0 -32 -4 -18 -4 -46 -1 -63 3 -16 3 -48 0 -70 -6 -48 8 -45 -225
-46 -71 0 -137 0 -145 0 -8 1 -62 2 -120 3 l-105 3 -2 55 c-1 30 -2 66 -3 80
-1 14 -1 123 -1 242 l1 218 50 -1 c28 -1 54 1 58 5 3 4 8 3 10 -3 2 -5 14 -6
30 -2z"/>
</g>
</svg>
