<svg xmlns="http://www.w3.org/2000/svg"
     xmlns:xlink="http://www.w3.org/1999/xlink"
     viewBox="0 0 100 100">
  <circle cx="50%" cy="50%" r="50%" fill="rgba(250, 250, 250, 0.9)" />

  <circle cx="50%" cy="50%" r="25%" fill="white" stroke="rgb(38, 64, 64)" stroke-width="12%" />
  <circle cx="50%" cy="50%" r="13%" fill="white" stroke="rgb(38, 64, 64)" stroke-width="6%" />
<g transform="rotate(11.25, 50, 50)">
  <polygon points="39,22 45,7 55,7 61,22" fill="rgb(38, 64, 64)" transform="rotate(0, 50, 50)" />
  <polygon points="39,22 45,7 55,7 61,22" fill="rgb(38, 64, 64)" transform="rotate(45, 50, 50)" />
  <polygon points="39,22 45,7 55,7 61,22" fill="rgb(38, 64, 64)" transform="rotate(90, 50, 50)" />
  <polygon points="39,22 45,7 55,7 61,22" fill="rgb(38, 64, 64)" transform="rotate(135, 50, 50)" />
  <polygon points="39,22 45,7 55,7 61,22" fill="rgb(38, 64, 64)" transform="rotate(180, 50, 50)" />
  <polygon points="39,22 45,7 55,7 61,22" fill="rgb(38, 64, 64)" transform="rotate(225, 50, 50)" />
  <polygon points="39,22 45,7 55,7 61,22" fill="rgb(38, 64, 64)" transform="rotate(270, 50, 50)" />
  <polygon points="39,22 45,7 55,7 61,22" fill="rgb(38, 64, 64)" transform="rotate(315, 50, 50)" />
  </g>
</svg>
