<svg xmlns="http://www.w3.org/2000/svg"
     xmlns:xlink="http://www.w3.org/1999/xlink"
     viewBox="0 0 330 290">
  <line x1="5" y1="5" x2="125" y2="5" stroke="black" stroke-linecap="round" stroke-width="10" />
  <line x1="5" y1="5" x2="5" y2="125" stroke="black" stroke-linecap="round" stroke-width="10" />
  <line x1="125" y1="5" x2="125" y2="45" stroke="black" stroke-linecap="round" stroke-width="10" />

  <line x1="5" y1="45" x2="125" y2="45" stroke="black" stroke-linecap="round" stroke-width="10" />

  <line x1="5" y1="85" x2="125" y2="85" stroke="black" stroke-linecap="round" stroke-width="10" />
  <line x1="125" y1="85" x2="125" y2="205" stroke="black" stroke-linecap="round" stroke-width="10" />

  <line x1="5" y1="125" x2="125" y2="125" stroke="black" stroke-linecap="round" stroke-width="10" />

  <line x1="5" y1="165" x2="125" y2="165" stroke="black" stroke-linecap="round" stroke-width="10" />
  <line x1="5" y1="165" x2="5" y2="205" stroke="black" stroke-linecap="round" stroke-width="10" />

  <line x1="5" y1="205" x2="125" y2="205" stroke="black" stroke-linecap="round" stroke-width="10" />

  <line x1="145" y1="85" x2="265" y2="85" stroke="black" stroke-linecap="round" stroke-width="10" />

  <line x1="145" y1="125" x2="265" y2="125" stroke="black" stroke-linecap="round" stroke-width="10" />
  <line x1="145" y1="85" x2="145" y2="205" stroke="black" stroke-linecap="round" stroke-width="10" />
  <line x1="265" y1="85" x2="265" y2="285" stroke="black" stroke-linecap="round" stroke-width="10" />

  <line x1="145" y1="165" x2="265" y2="165" stroke="black" stroke-linecap="round" stroke-width="10" />

  <line x1="145" y1="205" x2="265" y2="205" stroke="black" stroke-linecap="round" stroke-width="10" />

  <line x1="145" y1="245" x2="265" y2="245" stroke="black" stroke-linecap="round" stroke-width="10" />
  <line x1="145" y1="245" x2="145" y2="285" stroke="black" stroke-linecap="round" stroke-width="10" />

  <line x1="145" y1="285" x2="265" y2="285" stroke="black" stroke-linecap="round" stroke-width="10" />

  <line x1="45" y1="45" x2="45" y2="85" stroke="black" stroke-linecap="round" stroke-width="10" />
  <line x1="85" y1="125" x2="85" y2="165" stroke="black" stroke-linecap="round" stroke-width="10" />
  <line x1="185" y1="125" x2="185" y2="165" stroke="black" stroke-linecap="round" stroke-width="10" />
  <line x1="225" y1="125" x2="225" y2="165" stroke="black" stroke-linecap="round" stroke-width="10" />
  <line x1="225" y1="205" x2="225" y2="245" stroke="black" stroke-linecap="round" stroke-width="10" />

  <line x1="285" y1="205" x2="325" y2="205" stroke="black" stroke-linecap="round" stroke-width="10" />
  <line x1="285" y1="205" x2="285" y2="245" stroke="black" stroke-linecap="round" stroke-width="10" />
  <line x1="325" y1="205" x2="325" y2="245" stroke="black" stroke-linecap="round" stroke-width="10" />
  <line x1="285" y1="245" x2="325" y2="245" stroke="black" stroke-linecap="round" stroke-width="10" />
</svg>
